<svg width="19" height="19" viewBox="0 0 19 19" fill="none" xmlns="http://www.w3.org/2000/svg">
<path d="M13 2.62145L16 5.62145M13 2.62145L14 1.62145C14.197 1.42443 14.4308 1.26814 14.6882 1.16151C14.9456 1.05488 15.2214 1 15.5 1C15.7786 1 16.0544 1.05488 16.3118 1.16151C16.5692 1.26814 16.803 1.42443 17 1.62145V1.62145C17.197 1.81841 17.3533 2.05226 17.4599 2.30963C17.5666 2.56701 17.6215 2.84287 17.6215 3.12145C17.6215 3.40004 17.5666 3.6759 17.4599 3.93327C17.3533 4.19065 17.197 4.42449 17 4.62145L16 5.62145L13 2.62145ZM13 2.62145L2.196 13.4255C2.06779 13.5537 1.97688 13.7145 1.933 13.8905L1 17.6215L4.731 16.6885C4.90698 16.6446 5.06772 16.5537 5.196 16.4255L16 5.62145L13 2.62145Z" stroke="#2B2F7E" stroke-width="2" stroke-linecap="round" stroke-linejoin="round"/>
</svg>
