<svg width="23" height="23" viewBox="0 0 23 23" fill="none" xmlns="http://www.w3.org/2000/svg">
<path d="M20.1249 7.67658L13.8478 2.65491C12.6211 1.67741 10.7045 1.66782 9.48738 2.64532L3.2103 7.67658C2.30946 8.39533 1.76321 9.83282 1.95488 10.9637L3.16238 18.1895C3.4403 19.8091 4.94488 21.0837 6.58363 21.0837H16.742C18.3615 21.0837 19.8949 19.7803 20.1728 18.1799L21.3803 10.9541C21.5528 9.83282 21.0065 8.39533 20.1249 7.67658ZM12.142 19.167C12.142 19.167 12.142 19.167 12.142 19.167C12.142 19.167 12.1402 19.167 11.6628 19.167C11.365 19.167 8.12024 19.167 6.56808 19.167C6.09139 19.167 5.68267 18.8305 5.58918 18.3631L4.79163 14.3753L4.0238 10.9201C3.89717 10.3503 3.99153 9.8186 4.41998 9.42219C6.15737 7.81469 11.1754 3.83366 11.5 3.83366C11.8188 3.83366 16.9825 7.93422 18.6636 9.48138C19.0084 9.79879 19.0943 10.3884 18.9926 10.8459L18.2083 14.3753L17.4107 18.3631C17.3173 18.8305 16.9068 19.167 16.4302 19.167L12.142 19.167Z" fill="#2B2F7E"/>
<path d="M9.8226 13.6541C9.69884 13.0353 10.1721 12.458 10.8032 12.458H12.1969C12.828 12.458 13.3012 13.0353 13.1775 13.6541L12.6192 16.4458C12.5257 16.9132 12.1153 17.2497 11.6386 17.2497H11.3615C10.8848 17.2497 10.4744 16.9132 10.3809 16.4458L9.8226 13.6541Z" fill="#2B2F7E"/>
</svg>
