<svg width="23" height="23" viewBox="0 0 23 23" fill="none" xmlns="http://www.w3.org/2000/svg">
<path d="M19.1667 4.78444H15.7726V3.88727C15.7726 3.15323 15.5264 2.53473 15.0339 2.03178C14.5414 1.52882 13.9358 1.27734 13.2171 1.27734H9.78304C9.06429 1.27734 8.45868 1.52882 7.9662 2.03178C7.47372 2.53473 7.22748 3.15323 7.22748 3.88727V4.78444H3.83339C3.11464 4.78444 2.50902 5.02912 2.01655 5.51848C1.52407 6.00784 1.27783 6.63314 1.27783 7.39436V10.8607C1.27783 11.4316 1.55735 11.7171 2.11637 11.7171V18.6905C2.11637 19.1526 2.28941 19.5604 2.63547 19.9139C2.98154 20.2673 3.38084 20.444 3.83339 20.444H19.1667C19.6193 20.444 20.0186 20.2673 20.3646 19.9139C20.7107 19.5604 20.8837 19.1526 20.8837 18.6905V11.7171C21.4428 11.7171 21.7223 11.4316 21.7223 10.8607V7.39436C21.7223 6.63314 21.476 6.00784 20.9836 5.51848C20.4911 5.02912 19.8855 4.78444 19.1667 4.78444ZM8.9445 3.88727C8.9445 3.64259 9.02436 3.43869 9.18408 3.27557C9.3438 3.11245 9.54346 3.03089 9.78304 3.03089H13.2171C13.4567 3.03089 13.6563 3.11245 13.816 3.27557C13.9757 3.43869 14.0556 3.64259 14.0556 3.88727V4.78444H8.9445V3.88727ZM3.83339 18.6905V11.7171H8.9445V14.327C8.9445 14.8163 9.11088 15.2309 9.44363 15.5708C9.77638 15.9106 10.1823 16.0805 10.6615 16.0805H12.3386C12.8178 16.0805 13.2237 15.9106 13.5565 15.5708C13.8892 15.2309 14.0556 14.8163 14.0556 14.327V11.7171H19.1667V18.6905H3.83339ZM10.6615 14.327V11.7171H12.3386V14.327H10.6615ZM20.0053 10.0043H2.99485V7.39436C2.99485 6.79626 3.27436 6.4972 3.83339 6.4972H19.1667C19.7257 6.4972 20.0053 6.79626 20.0053 7.39436V10.0043Z" fill="#2B2F7E"/>
</svg>
